HIERARCHY
ROOT Hips
{
	OFFSET 0.000000 0.000000 0.000000
	CHANNELS 6 Xposition Yposition Zposition Zrotation Yrotation Xrotation 
	JOINT LHipJoint
	{
		OFFSET 0.000000 0.000000 0.000000
		CHANNELS 3 Zrotation Yrotation Xrotation
		JOINT LeftUpLeg
		{
			OFFSET 1.363060 -1.794630 0.839290
			CHANNELS 3 Zrotation Yrotation Xrotation
			JOINT LeftLeg
			{
				OFFSET 2.448110 -6.726130 0.000000
				CHANNELS 3 Zrotation Yrotation Xrotation
				JOINT LeftFoot
				{
					OFFSET 2.562200 -7.039590 0.000000
					CHANNELS 3 Zrotation Yrotation Xrotation
					JOINT LeftToeBase
					{
						OFFSET 0.157640 -0.433110 2.322550
						CHANNELS 3 Zrotation Yrotation Xrotation
						End Site
						{
							OFFSET 0.000000 0.000000 0.000000
						}
					}
				}
			}
		}
	}
	JOINT RHipJoint
	{
		OFFSET 0.000000 0.000000 0.000000
		CHANNELS 3 Zrotation Yrotation Xrotation
		JOINT RightUpLeg
		{
			OFFSET -1.305520 -1.794630 0.839290
			CHANNELS 3 Zrotation Yrotation Xrotation
			JOINT RightLeg
			{
				OFFSET -2.542530 -6.985550 0.000000
				CHANNELS 3 Zrotation Yrotation Xrotation
				JOINT RightFoot
				{
					OFFSET -2.568260 -7.056230 0.000000
					CHANNELS 3 Zrotation Yrotation Xrotation
					JOINT RightToeBase
					{
						OFFSET -0.164730 -0.452590 2.363150
						CHANNELS 3 Zrotation Yrotation Xrotation
						End Site
						{
							OFFSET 0.000000 0.000000 0.000000
						}
					}
				}
			}
		}
	}
	JOINT LowerBack
	{
		OFFSET 0.000000 0.000000 0.000000
		CHANNELS 3 Zrotation Yrotation Xrotation
		JOINT Spine
		{
			OFFSET 0.028270 2.035590 -0.193380
			CHANNELS 3 Zrotation Yrotation Xrotation
			JOINT Spine1
			{
				OFFSET 0.056720 2.048850 -0.042750
				CHANNELS 3 Zrotation Yrotation Xrotation
				JOINT Neck
				{
					OFFSET 0.000000 0.000000 0.000000
					CHANNELS 3 Zrotation Yrotation Xrotation
					JOINT Neck1
					{
						OFFSET -0.054170 1.746240 0.172020
						CHANNELS 3 Zrotation Yrotation Xrotation
						JOINT Head
						{
							OFFSET 0.104070 1.761360 -0.123970
							CHANNELS 3 Zrotation Yrotation Xrotation
							End Site
							{
								OFFSET 0.000000 0.000000 0.000000
							}
						}
					}
				}
				JOINT LeftShoulder
				{
					OFFSET 0.000000 0.000000 0.000000
					CHANNELS 3 Zrotation Yrotation Xrotation
					JOINT LeftArm
					{
						OFFSET 3.362410 1.200890 -0.311210
						CHANNELS 3 Zrotation Yrotation Xrotation
						JOINT LeftForeArm
						{
							OFFSET 4.983000 -0.000000 -0.000000
							CHANNELS 3 Zrotation Yrotation Xrotation
							JOINT LeftHand
							{
								OFFSET 3.483560 -0.000000 -0.000000
								CHANNELS 3 Zrotation Yrotation Xrotation
								JOINT LeftFingerBase
								{
									OFFSET 0.000000 0.000000 0.000000
									CHANNELS 3 Zrotation Yrotation Xrotation
									JOINT LeftHandIndex1
									{
										OFFSET 0.715260 -0.000000 -0.000000
										CHANNELS 3 Zrotation Yrotation Xrotation
										End Site
										{
											OFFSET 0.000000 0.000000 0.000000
										}
									}
								}
								JOINT LThumb
								{
									OFFSET 0.000000 0.000000 0.000000
									CHANNELS 3 Zrotation Yrotation Xrotation
									End Site
									{
										OFFSET 0.000000 0.000000 0.000000
									}
								}
							}
						}
					}
				}
				JOINT RightShoulder
				{
					OFFSET 0.000000 0.000000 0.000000
					CHANNELS 3 Zrotation Yrotation Xrotation
					JOINT RightArm
					{
						OFFSET -3.136600 1.374050 -0.404650
						CHANNELS 3 Zrotation Yrotation Xrotation
						JOINT RightForeArm
						{
							OFFSET -5.241900 -0.000000 -0.000000
							CHANNELS 3 Zrotation Yrotation Xrotation
							JOINT RightHand
							{
								OFFSET -3.444170 -0.000000 -0.000000
								CHANNELS 3 Zrotation Yrotation Xrotation
								JOINT RightFingerBase
								{
									OFFSET 0.000000 0.000000 0.000000
									CHANNELS 3 Zrotation Yrotation Xrotation
									JOINT RightHandIndex1
									{
										OFFSET -0.622530 -0.000000 -0.000000
										CHANNELS 3 Zrotation Yrotation Xrotation
										End Site
										{
											OFFSET 0.000000 0.000000 0.000000
										}
									}
								}
								JOINT RThumb
								{
									OFFSET 0.000000 0.000000 0.000000
									CHANNELS 3 Zrotation Yrotation Xrotation
									End Site
									{
										OFFSET 0.000000 0.000000 0.000000
									}
								}
							}
						}
					}
				}
			}
		}
	}
}
MOTION
Frames: 11
Frame Time: 0.008333
1.015015 15.339694 -1.586118 -120.313537 84.443450 -92.009077 -13.650613 0.744442 -5.309881 -11.907904 9.560361 -26.124233 -0.743617 3.497738 61.106516 1.666609 8.246749 -20.197269 -2.013700 -0.000001 -46.792500 6.356456 -0.144582 -2.611884 20.527541 -0.119779 -69.595845 2.222245 -5.952116 57.583973 0.583909 6.528179 -10.020920 -0.007400 -0.000001 -27.656200 8.898259 -2.457641 11.225315 0.999345 -2.429587 -0.772723 -6.210501 -2.355518 -0.829639 9.128515 -9.728916 -7.697236 -3.458281 -0.224688 -0.494372 0.000000 0.000000 0.000000 4.276353 8.771900 1.573941 -58.673747 -1.356171 -2.443787 -178.811363 -74.176321 179.991818 0.797878 3.423190 0.024752 -0.089433 0.369855 0.000000 0.000000 0.000000 0.000000 0.000000 0.000000 0.000000 11.450646 -5.580740 0.934980 70.550441 -6.759319 0.189978 0.189694 82.352116 -0.060983 -13.246432 -0.182878 -0.009562 0.186422 -0.271613 -0.000000 0.000000 0.000000 0.000000 0.000000 0.000000 0.000000 
1.212166 15.322604 -1.615129 -124.335390 84.197915 -96.052484 -13.804335 0.745627 -5.313121 -11.628380 9.361089 -26.446105 -0.541939 3.667722 62.858594 1.787310 9.269308 -19.860787 -2.143500 -0.000000 -40.718900 6.326616 -0.047056 -2.712271 20.179604 -0.105637 -69.263456 2.015897 -5.952252 58.992449 0.294561 5.202384 -11.353715 -0.056200 0.000000 -28.152600 9.103227 -2.487266 11.321317 1.036679 -2.463015 -0.776528 -6.211771 -2.395030 -0.920385 9.288045 -9.442386 -7.647244 -3.494632 -0.227387 -0.485037 0.000000 0.000000 0.000000 4.035113 8.578277 1.637778 -59.446827 -0.586186 -2.302079 -178.911855 -75.159274 179.989019 1.168027 3.668098 0.037563 -0.093683 0.359240 0.000000 0.000000 0.000000 0.000000 0.000000 0.000000 0.000000 11.791326 -5.337276 0.953605 70.206798 -6.102622 -0.046556 0.197221 82.038386 -0.062423 -13.481141 -0.311248 0.005719 0.189183 -0.271133 -0.000000 0.000000 0.000000 0.000000 0.000000 0.000000 0.000000 
1.404892 15.310516 -1.644536 -128.616672 83.854805 -100.306845 -13.952273 0.724926 -5.299978 -11.331373 9.118384 -27.020534 -0.336665 3.851368 64.779325 1.947340 10.469212 -19.767097 -2.342600 0.000000 -33.870900 6.294389 0.033324 -2.812290 19.941092 -0.173143 -68.908606 1.849914 -5.943045 60.184756 0.009433 3.928635 -12.640701 -0.048699 -0.000000 -29.626000 9.324617 -2.504728 11.391821 1.074348 -2.487055 -0.783165 -6.220439 -2.425708 -1.004979 9.488095 -9.165971 -7.588963 -3.529132 -0.230016 -0.473319 0.000000 0.000000 0.000000 3.805088 8.366271 1.690185 -60.297383 0.056564 -2.093923 -179.025912 -76.322613 179.985746 1.618138 3.941177 0.054971 -0.098500 0.348586 0.000000 0.000000 0.000000 0.000000 0.000000 0.000000 0.000000 12.175563 -5.120638 0.972596 69.870447 -5.379710 -0.318301 0.204925 81.689962 -0.064025 -13.739790 -0.480124 0.026497 0.192030 -0.270239 -0.000000 0.000000 0.000000 0.000000 0.000000 0.000000 0.000000 
1.593343 15.303362 -1.673750 -132.937874 83.418056 -104.547237 -14.087768 0.682288 -5.268747 -11.029265 8.831589 -27.842170 -0.127016 4.043923 66.817896 2.138228 11.798361 -19.855772 -2.599900 -0.000000 -27.022700 6.265169 0.099186 -2.905661 19.780768 -0.307654 -68.539357 1.721158 -5.925640 61.160119 -0.264935 2.736252 -13.859365 0.007001 0.000000 -31.690900 9.549228 -2.507681 11.428882 1.110303 -2.498963 -0.793284 -6.235663 -2.444622 -1.080389 9.724093 -8.904976 -7.526247 -3.558935 -0.232354 -0.460097 0.000000 0.000000 0.000000 3.590151 8.145873 1.731888 -61.205569 0.567649 -1.812329 -179.150642 -77.670902 179.982159 2.133557 4.226663 0.077077 -0.103540 0.338128 0.000000 0.000000 0.000000 0.000000 0.000000 0.000000 0.000000 12.587513 -4.930281 0.990457 69.561095 -4.605623 -0.627407 0.212325 81.319309 -0.065758 -14.013203 -0.682266 0.052372 0.194838 -0.269091 -0.000000 0.000000 0.000000 0.000000 0.000000 0.000000 0.000000 
1.777757 15.300826 -1.702306 -137.132532 82.898051 -108.605174 -14.205127 0.618137 -5.218384 -10.736862 8.500434 -28.895393 0.088509 4.239966 68.921369 2.348857 13.196141 -20.044402 -2.895201 0.000000 -20.936101 6.243672 0.153513 -2.987574 19.665562 -0.493942 -68.163191 1.624860 -5.901490 61.931759 -0.522963 1.646625 -14.992909 0.099800 0.000000 -33.951900 9.762210 -2.494756 11.427562 1.142357 -2.496860 -0.807416 -6.255859 -2.449707 -1.145135 9.987609 -8.660480 -7.461645 -3.581410 -0.234211 -0.445938 0.000000 0.000000 0.000000 3.391764 7.925169 1.764878 -62.149092 0.951771 -1.451703 -179.282289 -79.201208 179.978435 2.695701 4.507931 0.103476 -0.108476 0.328040 0.000000 0.000000 0.000000 0.000000 0.000000 0.000000 0.000000 13.006919 -4.760489 1.005848 69.297717 -3.799408 -0.973578 0.218873 80.940546 -0.067592 -14.292306 -0.907968 0.082144 0.197478 -0.267888 -0.000000 0.000000 0.000000 0.000000 0.000000 0.000000 0.000000 
1.958423 15.302496 -1.729819 -141.098303 82.312616 -112.381510 -14.299033 0.533979 -5.150199 -10.472604 8.128436 -30.156551 0.309227 4.434486 71.041861 2.566887 14.592208 -20.273065 -3.206000 -0.000000 -16.025700 6.234352 0.200223 -3.055102 19.561932 -0.717625 -67.785128 1.554813 -5.872083 62.523842 -0.760463 0.671447 -16.028852 0.217900 0.000001 -36.074001 9.947246 -2.465384 11.387643 1.168067 -2.479522 -0.825400 -6.278787 -2.439544 -1.198369 10.267681 -8.431690 -7.397039 -3.594163 -0.235420 -0.431294 0.000000 0.000000 0.000000 3.208854 7.712684 1.792067 -63.105042 1.220337 -1.008474 -179.417008 -80.909223 179.974752 3.282756 4.770924 0.133169 -0.113017 0.318366 0.000000 0.000000 0.000000 0.000000 0.000000 0.000000 0.000000 13.411711 -4.603591 1.017199 69.097274 -2.978257 -1.351015 0.224040 80.566881 -0.069503 -14.569393 -1.145444 0.114615 0.199850 -0.266847 -0.000000 0.000000 0.000000 0.000000 0.000000 0.000000 0.000000 
2.135652 15.307892 -1.756107 -144.784687 81.682261 -115.832806 -14.365398 0.432229 -5.068061 -10.254655 7.726102 -31.596464 0.531691 4.623377 73.137299 2.779876 15.912844 -20.516546 -3.513900 0.000000 -12.324200 6.240716 0.243002 -3.106873 19.441066 -0.965468 -67.407448 1.504099 -5.838850 62.965795 -0.975002 -0.188911 -16.955561 0.350000 -0.000000 -37.849800 10.089608 -2.419653 11.313253 1.185252 -2.446290 -0.846735 -6.301772 -2.413338 -1.240783 10.550745 -8.214077 -7.332312 -3.595497 -0.235878 -0.416124 0.000000 0.000000 0.000000 3.038208 7.513819 1.816961 -64.051526 1.392089 -0.482931 -179.550965 -82.782163 179.971294 3.873110 5.007344 0.164854 -0.116957 0.309014 0.000000 0.000000 0.000000 0.000000 0.000000 0.000000 0.000000 13.779013 -4.448682 1.023237 68.972357 -2.159416 -1.750564 0.227340 80.210975 -0.071464 -14.836849 -1.382495 0.148085 0.201860 -0.266177 -0.000000 0.000000 0.000000 0.000000 0.000000 0.000000 0.000000 
2.309792 15.316514 -1.781207 -148.177832 81.029277 -118.955908 -14.401135 0.315797 -4.977899 -10.099903 7.308980 -33.182883 0.750808 4.803394 75.167881 2.976357 17.090245 -20.768169 -3.803901 0.000000 -9.671900 6.265394 0.285310 -3.143683 19.280502 -1.227400 -67.028725 1.465849 -5.803185 63.289378 -1.166060 -0.943764 -17.765895 0.486700 -0.000000 -39.192400 10.176784 -2.358313 11.213015 1.192090 -2.397022 -0.870248 -6.321871 -2.370857 -1.273673 10.822525 -8.002137 -7.266417 -3.584315 -0.235525 -0.400205 0.000000 0.000000 0.000000 2.874451 7.332873 1.843171 -64.969027 1.490397 0.120870 -179.680881 -84.802345 179.968177 4.447365 5.216462 0.197234 -0.120192 0.299754 0.000000 0.000000 0.000000 0.000000 0.000000 0.000000 0.000000 14.087676 -4.285167 1.022779 68.929446 -1.355349 -2.157196 0.228438 79.882598 -0.073454 -15.088818 -1.606608 0.180655 0.203458 -0.266071 -0.000000 0.000000 0.000000 0.000000 0.000000 0.000000 0.000000 
2.481096 15.327986 -1.805269 -151.283972 80.374723 -121.771170 -14.404596 0.187799 -4.886786 -10.020916 6.895890 -34.881021 0.961021 4.972230 77.096561 3.146533 18.068438 -21.026155 -4.063600 0.000000 -7.838800 6.309716 0.329737 -3.168308 19.066266 -1.497091 -66.643549 1.434194 -5.766360 63.524232 -1.334818 -1.608919 -18.459177 0.621100 -0.000000 -40.114300 10.199882 -2.282727 11.098845 1.187268 -2.332124 -0.894520 -6.336472 -2.312499 -1.299673 11.069183 -7.785737 -7.196051 -3.560611 -0.234398 -0.382716 0.000000 0.000000 0.000000 2.712149 7.171150 1.874362 -65.841060 1.541567 0.794739 -179.804300 -86.946769 179.965497 4.990513 5.406048 0.229607 -0.122720 0.290262 0.000000 0.000000 0.000000 0.000000 0.000000 0.000000 0.000000 14.320761 -4.099393 1.014815 68.969080 -0.577855 -2.556077 0.227089 79.590580 -0.075444 -15.319054 -1.806431 0.210525 0.204580 -0.266684 -0.000000 0.000000 0.000000 0.000000 0.000000 0.000000 0.000000 
2.649883 15.341924 -1.828784 -154.103526 79.733965 -124.291160 -14.377861 0.049908 -4.800125 -10.019272 6.504612 -36.661969 1.158053 5.128599 78.891078 3.282551 18.807579 -21.273672 -4.277100 -0.000000 -6.721300 6.371230 0.375941 -3.183995 18.799146 -1.767613 -66.245569 1.404994 -5.729096 63.694353 -1.484370 -2.205601 -19.041869 0.749800 0.000000 -40.696100 10.159565 -2.194432 10.981545 1.171470 -2.252509 -0.917801 -6.342816 -2.239177 -1.319189 11.277140 -7.566260 -7.120520 -3.524296 -0.232491 -0.363546 0.000000 0.000000 0.000000 2.541840 7.030012 1.912335 -66.655505 1.572071 1.527246 -179.919642 -89.186079 179.963300 5.492786 5.591324 0.261675 -0.124607 0.280162 0.000000 0.000000 0.000000 0.000000 0.000000 0.000000 0.000000 14.463076 -3.891952 0.998422 69.082828 0.180103 -2.917455 0.223559 79.333312 -0.077420 -15.526164 -1.972642 0.236096 0.205312 -0.268101 -0.000000 0.000000 0.000000 0.000000 0.000000 0.000000 0.000000 
2.816308 15.358111 -1.852081 -156.657883 79.122242 -126.551386 -14.321766 -0.095236 -4.723798 -10.098499 6.149634 -38.494687 1.337742 5.271791 80.523399 3.379906 19.287863 -21.496599 -4.432900 -0.000000 -6.178700 6.448606 0.424709 -3.196012 18.480701 -2.039025 -65.826097 1.375573 -5.692310 63.820221 -1.618046 -2.752077 -19.528955 0.871600 0.000000 -41.048100 10.054264 -2.095836 10.874624 1.144516 -2.159800 -0.938163 -6.339340 -2.152549 -1.334364 11.437212 -7.336970 -7.036395 -3.476791 -0.229931 -0.341864 0.000000 0.000000 0.000000 2.358594 6.908382 1.958858 -67.403581 1.608214 2.303734 -0.026080 -88.513294 -0.038419 5.950751 5.793340 0.294338 -0.125994 0.269100 0.000000 0.000000 0.000000 0.000000 0.000000 0.000000 0.000000 14.509538 -3.656786 0.972805 69.257960 0.920745 -3.219805 0.218065 79.111752 -0.079352 -15.705739 -2.098277 0.255968 0.205654 -0.270364 -0.000000 0.000000 0.000000 0.000000 0.000000 0.000000 0.000000 
